<svg xmlns="http://www.w3.org/2000/svg" xmlns:xlink="http://www.w3.org/1999/xlink" width="500" zoomAndPan="magnify" viewBox="0 0 375 374.999991" height="500" preserveAspectRatio="xMidYMid meet" version="1.0"><defs><g/></defs><path stroke-linecap="round" transform="matrix(0.748353, 0, 0, 0.75, 98.607032, 163.985761)" fill="none" stroke-linejoin="miter" d="M 14.999605 14.998153 L 198.475429 14.998153 " stroke="#38b6ff" stroke-width="30" stroke-opacity="1" stroke-miterlimit="4"/><g fill="#000000" fill-opacity="1"><g transform="translate(107.864844, 229.578947)"><g><path d="M 68.566406 -22.054688 C 54.011719 -21.457031 23.105469 -22.957031 23.105469 -60.015625 C 23.105469 -88.523438 42.460938 -99.476562 68.566406 -98.125 L 68.566406 -71.566406 L 91.523438 -71.566406 L 91.523438 -118.679688 C 91.523438 -119.28125 90.921875 -120.03125 89.871094 -120.03125 L 70.367188 -120.03125 C 40.960938 -120.03125 0 -113.277344 0 -60.015625 C 0 -8.703125 40.511719 0 70.367188 0 L 89.871094 0 C 90.921875 0 91.523438 -0.75 91.523438 -1.351562 L 91.523438 -22.054688 Z M 68.566406 -22.054688 "/></g></g></g><g fill="#38b6ff" fill-opacity="1"><g transform="translate(178.836029, 284.671409)"><g><path d="M 24.667969 -76.246094 L 24.667969 -1.34375 C 24.667969 -0.746094 25.265625 0 26.3125 0 L 45.597656 0 C 46.644531 0 47.394531 -0.746094 47.394531 -1.34375 L 47.394531 -76.246094 Z M 1.644531 -99.121094 L 70.265625 -99.121094 C 71.3125 -99.121094 71.910156 -99.71875 71.910156 -100.46875 L 71.910156 -118.257812 C 71.910156 -118.855469 71.3125 -119.605469 70.265625 -119.605469 L 1.644531 -119.605469 C 0.746094 -119.605469 0 -118.855469 0 -118.257812 L 0 -100.46875 C 0 -99.71875 0.746094 -99.121094 1.644531 -99.121094 Z M 1.644531 -99.121094 "/></g></g></g></svg>